C:\GBW_MyPrograms\PredSimResults\gait1018\gait1018_v26.mot
version=1
nRows=6
nColumns=29
inDegrees=yes
endheader
                time	         pelvis_tilt	           pelvis_tx	           pelvis_ty	       hip_flexion_l	       hip_flexion_r	        knee_angle_l	        knee_angle_r	       ankle_angle_l	       ankle_angle_r	    lumbar_extension	hamstrings_r/activation	bifemsh_r/activation	glut_max_r/activation	iliopsoas_r/activation	rect_fem_r/activation	  vasti_r/activation	gastroc_r/activation	 soleus_r/activation	tib_ant_r/activation	hamstrings_l/activation	bifemsh_l/activation	glut_max_l/activation	iliopsoas_l/activation	rect_fem_l/activation	  vasti_l/activation	gastroc_l/activation	 soleus_l/activation	tib_ant_l/activation	
          0.00000000	         -7.20713978	          0.00000000	          0.88883572	         -8.02310944	         33.38980228	        -14.91216209	        -14.94560844	          7.89595684	         10.40746531	          0.11869769	          0.20093233	          0.05000025	          0.08768329	          0.05479921	          0.05846444	          0.05000002	          0.05921256	          0.05178731	          0.22194869	          0.05000001	          0.05000045	          0.05000007	          0.58587530	          0.24063877	          0.07876146	          0.28982722	          0.31706621	          0.05000000	
          0.01015692	         -7.25601209	          0.01598563	          0.88795062	         -8.48329171	         32.76148368	        -15.72058316	        -14.62673947	          6.62404162	         10.23355071	          0.55194162	          0.18245817	          0.05000054	          0.09442357	          0.05000004	          0.05000036	          0.06590723	          0.05196972	          0.05000001	          0.25119609	          0.05000000	          0.05000096	          0.05000002	          0.50105563	          0.20580047	          0.06735910	          0.25826861	          0.27753300	          0.05000000	
          0.02031384	         -7.30367400	          0.03220214	          0.88705567	         -8.74242959	         32.14068707	        -16.89679895	        -15.07564096	          5.24085334	          9.88433408	          1.01403862	          0.15604292	          0.05000135	          0.14543787	          0.05000001	          0.05000001	          0.12412973	          0.05860472	          0.05689576	          0.22426761	          0.05061337	          0.05000053	          0.05000036	          0.42851566	          0.17600585	          0.05760766	          0.22087795	          0.23735335	          0.05000000	
          0.03047076	         -7.35344431	          0.04845010	          0.88634504	         -8.74943886	         31.47766909	        -18.47316018	        -15.70953460	          3.63977043	          9.60863581	          1.48352915	          0.13345192	          0.06836122	          0.16912217	          0.05000001	          0.05000001	          0.18406821	          0.05012028	          0.05000001	          0.28265778	          0.05000003	          0.05000017	          0.09346456	          0.36647763	          0.15052475	          0.05667144	          0.18890050	          0.20299068	          0.05000000	
          0.04062768	         -7.40911935	          0.06443772	          0.88608493	         -8.47589629	         30.85752895	        -20.41115558	        -16.37081245	          1.67298754	          9.31848039	          1.92768721	          0.11413151	          0.05846432	          0.20299310	          0.05000000	          0.05000003	          0.25707554	          0.05000005	          0.05000006	          0.29582784	          0.05000001	          0.05000013	          0.07993330	          0.31342114	          0.14223183	          0.05700876	          0.16155256	          0.17360285	          0.05000000	
          0.05078460	         -7.47180426	          0.07999597	          0.88637999	         -7.92008879	         30.30628402	        -22.68062305	        -17.09655343	         -0.58402871	          9.12227013	          2.32702356	          0.10080850	          0.05000042	          0.23772511	          0.05000000	          0.05000001	          0.32589061	          0.05000002	          0.05000006	          0.31393548	          0.05000003	          0.05000010	          0.06836102	          0.26804585	          0.12164035	          0.05466680	          0.13816390	          0.14846961	          0.23334917	
